<svg xmlns="http://www.w3.org/2000/svg" data-name="Layer 1" viewBox="0 0 168 168" id="chemistry"><rect width="100%" height="100%" fill="white"/> <path fill="#0bceb2" d="M118.15387 155.75h-8.30774a2.00641 2.00641 0 0 0 0 4h8.30774a2.00641 2.00641 0 0 0 0-4zM58.15387 155.75H49.84613a2.00641 2.00641 0 0 0 0 4h8.30774a2.00641 2.00641 0 0 0 0-4zM104 155.75H64a2 2 0 0 0 0 4H79.94v2H72a2 2 0 0 0 0 4H97a2 2 0 0 0 0-4H88.06v-2H104a2 2 0 0 0 0-4zM112 129.75a7 7 0 1 0 7 7A7.00794 7.00794 0 0 0 112 129.75zm0 10a3 3 0 1 1 3-3A3 3 0 0 1 112 139.75zM122 113.75a7 7 0 1 0 7 7A7.00794 7.00794 0 0 0 122 113.75zm0 10a3 3 0 1 1 3-3A3 3 0 0 1 122 123.75z"></path><circle cx="2" cy="149.75" r="2" fill="#2d4356"></circle><path fill="#2d4356" d="M11 147.75H8a2 2 0 0 0 0 4h3a2 2 0 0 0 0-4zM160 147.75h-3a2 2 0 0 0 0 4h3a2 2 0 0 0 0-4z"></path><circle cx="166" cy="149.75" r="2" fill="#2d4356"></circle><path fill="#2d4356" d="M150.72,147.75H148a3.90543,3.90543,0,0,0-.28-1.46L127.38,94.51V70.49A3.982,3.982,0,0,0,130,66.75v-4a3.99887,3.99887,0,0,0-4-4h-6v-33a2.00587,2.00587,0,0,0-2-2H84a2.00587,2.00587,0,0,0-2,2v5H37a2.00587,2.00587,0,0,0-2,2v5H29a3.99887,3.99887,0,0,0-4,4v4a3.99986,3.99986,0,0,0,3,3.86V67.75H24a2.29815,2.29815,0,0,0-.26.03,1.99433,1.99433,0,0,0-3.74.97v10a1.99431,1.99431,0,0,0,3.74.97,2.29834,2.29834,0,0,0,.26.03h4v9a9,9,0,0,0,18,0v-9h8v60H41a4.00894,4.00894,0,0,0-3.58,2.21l-2,4a4.04112,4.04112,0,0,0-.41,1.79H17.28a2.0172,2.0172,0,1,0,0,4H150.72a2.0172,2.0172,0,1,0,0-4ZM28,75.75H24v-4h4Zm98-13v4H110v-4Zm-35-21v4H75v-4Zm-3,8v39a5,5,0,0,1-10,0v-39Zm-46,39a5,5,0,0,1-10,0v-39H42Zm3-43H29v-4H45Zm0-8H39v-3H82v3H75a3.99887,3.99887,0,0,0-4,4v4a3.99986,3.99986,0,0,0,3,3.86V67.75H46V49.61a3.99986,3.99986,0,0,0,3-3.86v-4A3.99887,3.99887,0,0,0,45,37.75Zm-6,110,2-4H58v-68H46v-4H74v4H62v68H79l2,4Zm49,0H84.99a4.04112,4.04112,0,0,0-.41-1.79l-2-4A4.00894,4.00894,0,0,0,79,139.75H66v-60h8v9a9,9,0,0,0,18,0v-9h4a2.29834,2.29834,0,0,0,.26-.03,1.99431,1.99431,0,0,0,3.74-.97v-10a1.99433,1.99433,0,0,0-3.74-.97,2.29815,2.29815,0,0,0-.26-.03H92V49.61a3.99986,3.99986,0,0,0,3-3.86v-4a3.99887,3.99887,0,0,0-4-4H86v-10h30v31h-6a3.99887,3.99887,0,0,0-4,4v4a3.982,3.982,0,0,0,2.62,3.74V94.51l-5.25,13.38-3.75-3.75a4.00755,4.00755,0,0,0-.47-5.09l-2.83-2.82a3.98366,3.98366,0,0,0-5.66,0L79.35,107.54a4.00765,4.00765,0,0,0,0,5.66L82.18,116.02a3.9077,3.9077,0,0,0,4.6.74005l9.4,9.4-7.9,20.13A3.90543,3.90543,0,0,0,88,147.75Zm4-72v-4h4v4Zm4.32,26.13L85.01,113.2l-2.83-2.83L93.49,99.05ZM92,147.75l7.91-20.12a4.00917,4.00917,0,0,0-.9-4.3l-9.24-9.24,7.07-7.07,3.7,3.7a3.99914,3.99914,0,0,0,6.55-1.37l.61-1.55,1.51-3.85L112.62,95.27V70.75h10.76V95.27l3.34,8.5,1.51,3.84L144,147.75Z"></path><path fill="#0bceb2" d="M88 54.82v4.09a4.85537 4.85537 0 0 0-.89.5 6.97286 6.97286 0 0 1-8.22 0 4.85537 4.85537 0 0 0-.89-.5V54.82a6.828 6.828 0 0 1 3.11 1.27 3.03606 3.03606 0 0 0 3.78 0A6.828 6.828 0 0 1 88 54.82zM128.23 107.61a1.975 1.975 0 0 1-.73.14 10.751 10.751 0 0 0-4.54.87 16.28257 16.28257 0 0 1-11.92 0 10.94144 10.94144 0 0 0-3.34-.82l1.51-3.85a15.12685 15.12685 0 0 1 3.25.93 12.2807 12.2807 0 0 0 9.08 0 14.61383 14.61383 0 0 1 5.18-1.11zM42 59.82v4.09a4.85537 4.85537 0 0 0-.89.5 6.97286 6.97286 0 0 1-8.22 0 4.85537 4.85537 0 0 0-.89-.5V59.82a6.828 6.828 0 0 1 3.11 1.27 3.03606 3.03606 0 0 0 3.78 0A6.828 6.828 0 0 1 42 59.82z"></path><path fill="#2d4356" d="M66 8.75a3 3 0 1 0-3-3A3.00344 3.00344 0 0 0 66 8.75zm0-4.5a1.5 1.5 0 1 1-1.5 1.5A1.50148 1.50148 0 0 1 66 4.25zM160.30471 55.785a2 2 0 1 0 2 2A2.00229 2.00229 0 0 0 160.30471 55.785zm0 3a1 1 0 1 1 1-1A1.001 1.001 0 0 1 160.30471 58.785zM134 2.25a2 2 0 1 0 2 2A2.00229 2.00229 0 0 0 134 2.25zm0 3a1 1 0 1 1 1-1A1.001 1.001 0 0 1 134 5.25zM130.23 42.942a2 2 0 1 0 2 2A2.00229 2.00229 0 0 0 130.23 42.942zm0 3a1 1 0 1 1 1-1A1.001 1.001 0 0 1 130.23 45.942zM34 21.50942a2 2 0 1 0-2 2A2.00229 2.00229 0 0 0 34 21.50942zm-3 0a1 1 0 1 1 1 1A1.001 1.001 0 0 1 31 21.50942z"></path><polygon fill="#0bceb2" points="8.111 45.691 9.597 43.736 8.658 43.204 7.704 45.394 7.672 45.394 6.703 43.219 5.747 43.767 7.219 45.676 7.219 45.707 4.918 45.41 4.918 46.474 7.234 46.177 7.234 46.208 5.747 48.116 6.639 48.68 7.657 46.474 7.688 46.474 8.627 48.664 9.613 48.101 8.111 46.223 8.111 46.192 10.473 46.474 10.473 45.41 8.111 45.723 8.111 45.691"></polygon><polygon fill="#0bceb2" points="7.43 5.903 6.574 7.002 7.087 7.327 7.673 6.056 7.691 6.056 8.232 7.318 8.799 6.993 7.934 5.912 7.934 5.894 9.295 6.056 9.295 5.444 7.934 5.624 7.934 5.606 8.791 4.48 8.25 4.173 7.7 5.434 7.682 5.434 7.124 4.182 6.574 4.497 7.421 5.597 7.421 5.615 6.096 5.444 6.096 6.056 7.43 5.885 7.43 5.903"></polygon><polygon fill="#0bceb2" points="164.724 22.895 164.724 21.851 162.407 22.158 162.407 22.128 163.866 20.209 162.945 19.688 162.009 21.836 161.977 21.836 161.027 19.703 160.089 20.24 161.533 22.113 161.533 22.143 159.276 21.851 159.276 22.895 161.548 22.604 161.548 22.634 160.089 24.506 160.964 25.059 161.963 22.895 161.992 22.895 162.913 25.044 163.881 24.491 162.407 22.649 162.407 22.619 164.724 22.895"></polygon><polygon fill="#0bceb2" points="98.701 13.763 99.959 12.108 99.165 11.658 98.357 13.511 98.33 13.511 97.51 11.671 96.702 12.135 97.947 13.75 97.947 13.776 96 13.525 96 14.425 97.96 14.174 97.96 14.2 96.702 15.815 97.456 16.292 98.317 14.425 98.343 14.425 99.138 16.278 99.972 15.802 98.701 14.213 98.701 14.187 100.7 14.425 100.7 13.525 98.701 13.789 98.701 13.763"></polygon></svg>