<?xml version="1.0" encoding="UTF-8"?>
<!DOCTYPE svg PUBLIC "-//W3C//DTD SVG 1.1//EN" "http://www.w3.org/Graphics/SVG/1.1/DTD/svg11.dtd">
<svg xmlns="http://www.w3.org/2000/svg" version="1.1" width="91px" height="91px" style="shape-rendering:geometricPrecision; text-rendering:geometricPrecision; image-rendering:optimizeQuality; fill-rule:evenodd; clip-rule:evenodd" xmlns:xlink="http://www.w3.org/1999/xlink">
<g><path style="opacity:0.84" fill="#262e3a" d="M 40.5,-0.5 C 43.5,-0.5 46.5,-0.5 49.5,-0.5C 63.5,12.8333 77.1667,26.5 90.5,40.5C 90.5,43.5 90.5,46.5 90.5,49.5C 77.1667,63.5 63.5,77.1667 49.5,90.5C 46.5,90.5 43.5,90.5 40.5,90.5C 26.5,77.1667 12.8333,63.5 -0.5,49.5C -0.5,46.5 -0.5,43.5 -0.5,40.5C 12.8333,26.5 26.5,12.8333 40.5,-0.5 Z"/></g>
<g><path style="opacity:1" fill="#fafafa" d="M 42.5,2.5 C 44.9892,2.29777 47.3225,2.79777 49.5,4C 61.6667,16.1667 73.8333,28.3333 86,40.5C 88,43.5 88,46.5 86,49.5C 73.8333,61.6667 61.6667,73.8333 49.5,86C 46.5,88 43.5,88 40.5,86C 28.3333,73.8333 16.1667,61.6667 4,49.5C 2,46.5 2,43.5 4,40.5C 16.7284,27.6042 29.5617,14.9375 42.5,2.5 Z"/></g>
<g><path style="opacity:1" fill="#4a4a4a" d="M 40.5,41.5 C 39.4855,42.7647 37.9855,43.4313 36,43.5C 34.5,43.3333 33,43.1667 31.5,43C 31.0426,42.586 30.7093,42.086 30.5,41.5C 32.177,39.4602 33.8437,37.4602 35.5,35.5C 37.5,36.8333 39.5,36.8333 41.5,35.5C 45.1048,37.6973 44.7714,39.6973 40.5,41.5 Z"/></g>
<g><path style="opacity:1" fill="#f1f1f1" d="M 40.5,41.5 C 37.7557,42.205 35.089,42.205 32.5,41.5C 34.3832,37.0366 37.3832,36.2032 41.5,39C 40.7476,39.6708 40.4142,40.5041 40.5,41.5 Z"/></g>
<g><path style="opacity:1" fill="#101010" d="M 51.5,21.5 C 57.6426,22.0262 58.9759,24.8595 55.5,30C 56.7659,30.3095 57.9326,30.8095 59,31.5C 60.7743,34.7148 62.2743,38.0482 63.5,41.5C 61.5767,42.3078 59.5767,42.8078 57.5,43C 59.5767,43.1922 61.5767,43.6922 63.5,44.5C 62.6204,52.4698 61.787,60.4698 61,68.5C 59.6562,63.4591 58.1562,58.4591 56.5,53.5C 53.8761,58.6226 51.0428,63.6226 48,68.5C 49.0769,58.8786 50.0769,49.212 51,39.5C 50.6905,38.2341 50.1905,37.0674 49.5,36C 44.8333,34.3333 40.1667,32.6667 35.5,31C 40.8333,30.6667 46.1667,30.3333 51.5,30C 47.6054,27.178 47.6054,24.3446 51.5,21.5 Z"/></g>
<g><path style="opacity:1" fill="#646464" d="M 44.5,59.5 C 44.7678,61.099 44.4345,62.4324 43.5,63.5C 42.6743,64.0134 42.0076,65.3467 41.5,67.5C 40.8837,64.42 40.8837,61.5866 41.5,59C 41.8333,58.5 42.1667,58 42.5,57.5C 43.1818,58.2427 43.8485,58.9094 44.5,59.5 Z"/></g>
<g><path style="opacity:1" fill="#1c1c1c" d="M 44.5,59.5 C 43.8485,58.9094 43.1818,58.2427 42.5,57.5C 42.1667,58 41.8333,58.5 41.5,59C 40.8837,61.5866 40.8837,64.42 41.5,67.5C 42.0076,65.3467 42.6743,64.0134 43.5,63.5C 43.5,65.1667 43.5,66.8333 43.5,68.5C 39.4454,68.8242 35.4454,68.4909 31.5,67.5C 30.1432,60.0745 28.4765,52.7411 26.5,45.5C 33.1667,44.1667 39.8333,44.1667 46.5,45.5C 45.1837,50.0658 44.517,54.7325 44.5,59.5 Z"/></g>
<g><path style="opacity:1" fill="#b3b3b3" d="M 32.5,65.5 C 34.337,65.6395 34.6704,66.3061 33.5,67.5C 32.7025,67.0431 32.3691,66.3764 32.5,65.5 Z"/></g>
<g><path style="opacity:1" fill="#868686" d="M 37.5,61.5 C 38.6935,61.9704 39.3601,62.9704 39.5,64.5C 39.1667,65.5 38.8333,66.5 38.5,67.5C 37.5344,65.604 37.2011,63.604 37.5,61.5 Z"/></g>
<g><path style="opacity:1" fill="#c2c2c2" d="M 34.5,61.5 C 36.337,61.6395 36.6704,62.3061 35.5,63.5C 34.7025,63.0431 34.3691,62.3764 34.5,61.5 Z"/></g>
<g><path style="opacity:1" fill="#dbdbdb" d="M 31.5,61.5 C 33.337,61.6395 33.6704,62.3061 32.5,63.5C 31.7025,63.0431 31.3691,62.3764 31.5,61.5 Z"/></g>
<g><path style="opacity:1" fill="#e3e3e3" d="M 37.5,57.5 C 39.337,57.6395 39.6704,58.3061 38.5,59.5C 37.7025,59.0431 37.3691,58.3764 37.5,57.5 Z"/></g>
<g><path style="opacity:1" fill="#e1e1e1" d="M 34.5,57.5 C 36.337,57.6395 36.6704,58.3061 35.5,59.5C 34.7025,59.0431 34.3691,58.3764 34.5,57.5 Z"/></g>
<g><path style="opacity:1" fill="#ebebeb" d="M 37.5,54.5 C 39.337,54.6395 39.6704,55.3061 38.5,56.5C 37.7025,56.0431 37.3691,55.3764 37.5,54.5 Z"/></g>
<g><path style="opacity:1" fill="#e4e4e4" d="M 34.5,54.5 C 36.337,54.6395 36.6704,55.3061 35.5,56.5C 34.7025,56.0431 34.3691,55.3764 34.5,54.5 Z"/></g>
<g><path style="opacity:1" fill="#e7e7e7" d="M 30.5,54.5 C 32.337,54.6395 32.6704,55.3061 31.5,56.5C 30.7025,56.0431 30.3691,55.3764 30.5,54.5 Z"/></g>
<g><path style="opacity:1" fill="#e9e9e9" d="M 41.5,54.5 C 43.337,54.6395 43.6704,55.3061 42.5,56.5C 41.7025,56.0431 41.3691,55.3764 41.5,54.5 Z"/></g>
<g><path style="opacity:1" fill="#fefffe" d="M 41.5,50.5 C 43.337,50.6395 43.6704,51.3061 42.5,52.5C 41.7025,52.0431 41.3691,51.3764 41.5,50.5 Z"/></g>
<g><path style="opacity:1" fill="#e5e5e5" d="M 37.5,50.5 C 38.675,50.281 39.675,50.6143 40.5,51.5C 38.9483,52.7979 37.9483,52.4646 37.5,50.5 Z"/></g>
<g><path style="opacity:1" fill="#ededed" d="M 33.5,50.5 C 34.675,50.281 35.675,50.6143 36.5,51.5C 34.9483,52.7979 33.9483,52.4646 33.5,50.5 Z"/></g>
<g><path style="opacity:1" fill="#dadada" d="M 29.5,50.5 C 30.675,50.281 31.675,50.6143 32.5,51.5C 30.9483,52.7979 29.9483,52.4646 29.5,50.5 Z"/></g>
<g><path style="opacity:1" fill="#dedede" d="M 41.5,46.5 C 42.675,46.281 43.675,46.6143 44.5,47.5C 42.9483,48.7979 41.9483,48.4646 41.5,46.5 Z"/></g>
<g><path style="opacity:1" fill="#f4f4f4" d="M 37.5,46.5 C 38.675,46.281 39.675,46.6143 40.5,47.5C 38.9483,48.7979 37.9483,48.4646 37.5,46.5 Z"/></g>
<g><path style="opacity:1" fill="#e0e0e0" d="M 33.5,46.5 C 34.675,46.281 35.675,46.6143 36.5,47.5C 34.9483,48.7979 33.9483,48.4646 33.5,46.5 Z"/></g>
<g><path style="opacity:1" fill="#fefffe" d="M 29.5,46.5 C 31.337,46.6395 31.6704,47.3061 30.5,48.5C 29.7025,48.0431 29.3691,47.3764 29.5,46.5 Z"/></g>
</svg>
