<?xml version="1.0" encoding="UTF-8"?>
<!DOCTYPE svg PUBLIC "-//W3C//DTD SVG 1.1//EN" "http://www.w3.org/Graphics/SVG/1.1/DTD/svg11.dtd">
<svg xmlns="http://www.w3.org/2000/svg" version="1.1" width="91px" height="91px" style="shape-rendering:geometricPrecision; text-rendering:geometricPrecision; image-rendering:optimizeQuality; fill-rule:evenodd; clip-rule:evenodd" xmlns:xlink="http://www.w3.org/1999/xlink">
<g><path style="opacity:0.979" fill="#edbe02" d="M 40.5,-0.5 C 43.5,-0.5 46.5,-0.5 49.5,-0.5C 63.5,12.8333 77.1667,26.5 90.5,40.5C 90.5,43.5 90.5,46.5 90.5,49.5C 77.1667,63.5 63.5,77.1667 49.5,90.5C 46.5,90.5 43.5,90.5 40.5,90.5C 26.5,77.1667 12.8333,63.5 -0.5,49.5C -0.5,46.5 -0.5,43.5 -0.5,40.5C 12.8333,26.5 26.5,12.8333 40.5,-0.5 Z"/></g>
<g><path style="opacity:1" fill="#faf9f7" d="M 58.5,46.5 C 53.9626,48.3507 49.4626,50.3507 45,52.5C 42.3051,50.8856 39.4717,50.0523 36.5,50C 39.4125,51.3726 42.2458,52.8726 45,54.5C 49.2226,51.8039 53.7226,49.8039 58.5,48.5C 59.0685,51.5884 59.0685,54.5884 58.5,57.5C 49.4351,62.7943 40.4351,62.7943 31.5,57.5C 30.2588,54.463 30.2588,51.463 31.5,48.5C 35.2887,48.2627 35.2887,47.5961 31.5,46.5C 31.1667,46.5 30.8333,46.5 30.5,46.5C 30.44,45.9569 30.1067,45.6236 29.5,45.5C 28.5108,49.1073 28.1774,52.774 28.5,56.5C 26.5698,52.6273 25.9031,48.294 26.5,43.5C 23.2735,43.2201 20.6068,41.8868 18.5,39.5C 27.1212,35.3477 35.9546,31.6811 45,28.5C 54.2958,31.8757 63.4625,35.5423 72.5,39.5C 67.8157,41.8422 63.149,44.1755 58.5,46.5 Z"/></g>
<g><path style="opacity:1" fill="#c0af6f" d="M 31.5,46.5 C 35.2887,47.5961 35.2887,48.2627 31.5,48.5C 31.5,47.8333 31.5,47.1667 31.5,46.5 Z"/></g>
<g><path style="opacity:1" fill="#bead6a" d="M 58.5,46.5 C 58.5,47.1667 58.5,47.8333 58.5,48.5C 53.7226,49.8039 49.2226,51.8039 45,54.5C 42.2458,52.8726 39.4125,51.3726 36.5,50C 39.4717,50.0523 42.3051,50.8856 45,52.5C 49.4626,50.3507 53.9626,48.3507 58.5,46.5 Z"/></g>
<g><path style="opacity:1" fill="#c0ac5e" d="M 30.5,46.5 C 29.8333,49.8333 29.1667,53.1667 28.5,56.5C 28.1774,52.774 28.5108,49.1073 29.5,45.5C 30.1067,45.6236 30.44,45.9569 30.5,46.5 Z"/></g>
</svg>
