<?xml version="1.0" encoding="UTF-8"?>
<!DOCTYPE svg PUBLIC "-//W3C//DTD SVG 1.1//EN" "http://www.w3.org/Graphics/SVG/1.1/DTD/svg11.dtd">
<svg xmlns="http://www.w3.org/2000/svg" version="1.1" width="91px" height="91px" style="shape-rendering:geometricPrecision; text-rendering:geometricPrecision; image-rendering:optimizeQuality; fill-rule:evenodd; clip-rule:evenodd" xmlns:xlink="http://www.w3.org/1999/xlink">
<g><path style="opacity:0.84" fill="#262e3a" d="M 40.5,-0.5 C 43.5,-0.5 46.5,-0.5 49.5,-0.5C 63.5,12.8333 77.1667,26.5 90.5,40.5C 90.5,43.5 90.5,46.5 90.5,49.5C 77.1667,63.5 63.5,77.1667 49.5,90.5C 46.5,90.5 43.5,90.5 40.5,90.5C 26.5,77.1667 12.8333,63.5 -0.5,49.5C -0.5,46.5 -0.5,43.5 -0.5,40.5C 12.8333,26.5 26.5,12.8333 40.5,-0.5 Z"/></g>
<g><path style="opacity:1" fill="#fcfcfc" d="M 42.5,2.5 C 44.9892,2.29777 47.3225,2.79777 49.5,4C 61.6667,16.1667 73.8333,28.3333 86,40.5C 88,43.5 88,46.5 86,49.5C 73.8333,61.6667 61.6667,73.8333 49.5,86C 46.5,88 43.5,88 40.5,86C 28.3333,73.8333 16.1667,61.6667 4,49.5C 2,46.5 2,43.5 4,40.5C 16.7284,27.6042 29.5617,14.9375 42.5,2.5 Z"/></g>
<g><path style="opacity:1" fill="#171717" d="M 54.5,33.5 C 58.1667,33.5 61.8333,33.5 65.5,33.5C 65.5,41.1667 65.5,48.8333 65.5,56.5C 61.8333,56.5 58.1667,56.5 54.5,56.5C 54.5,48.8333 54.5,41.1667 54.5,33.5 Z"/></g>
<g><path style="opacity:1" fill="#f9f9f9" d="M 51.5,35.5 C 51.5,40.5 51.5,45.5 51.5,50.5C 43.1667,50.5 34.8333,50.5 26.5,50.5C 25.1757,45.4327 25.1757,40.266 26.5,35C 35.0104,34.1768 43.3437,34.3434 51.5,35.5 Z"/></g>
<g><path style="opacity:1" fill="#7b7b7b" d="M 56.5,35.5 C 58.604,35.2011 60.604,35.5344 62.5,36.5C 61.5,36.8333 60.5,37.1667 59.5,37.5C 57.9704,37.3601 56.9704,36.6935 56.5,35.5 Z"/></g>
<g><path style="opacity:1" fill="#bbbbbb" d="M 61.5,38.5 C 62.7733,39.0768 62.7733,39.7435 61.5,40.5C 60.537,40.0302 60.537,39.3635 61.5,38.5 Z"/></g>
<g><path style="opacity:1" fill="#4d4d4d" d="M 52.5,34.5 C 52.5,35.1667 52.1667,35.5 51.5,35.5C 43.3437,34.3434 35.0104,34.1768 26.5,35C 25.1757,40.266 25.1757,45.4327 26.5,50.5C 29.6248,51.4794 32.9581,51.8128 36.5,51.5C 36.5,51.8333 36.5,52.1667 36.5,52.5C 32.5633,52.7935 28.73,52.4601 25,51.5C 24.5005,45.5092 24.3338,39.5092 24.5,33.5C 34.015,33.1731 43.3483,33.5064 52.5,34.5 Z"/></g>
<g><path style="opacity:1" fill="#535353" d="M 56.5,43.5 C 58.5,43.5 60.5,43.5 62.5,43.5C 62.5,44.8333 62.5,46.1667 62.5,47.5C 60.5,47.5 58.5,47.5 56.5,47.5C 56.5,46.1667 56.5,44.8333 56.5,43.5 Z"/></g>
<g><path style="opacity:1" fill="#757575" d="M 52.5,34.5 C 53.6517,39.9846 53.8184,45.6513 53,51.5C 49.27,52.4601 45.4367,52.7935 41.5,52.5C 40.0813,51.5489 38.4147,51.2155 36.5,51.5C 32.9581,51.8128 29.6248,51.4794 26.5,50.5C 34.8333,50.5 43.1667,50.5 51.5,50.5C 51.5,45.5 51.5,40.5 51.5,35.5C 52.1667,35.5 52.5,35.1667 52.5,34.5 Z"/></g>
<g><path style="opacity:1" fill="#dadada" d="M 60.5,51.5 C 61.5,51.5 62.5,51.5 63.5,51.5C 63.5,52.5 63.5,53.5 63.5,54.5C 62.5,54.5 61.5,54.5 60.5,54.5C 60.5,53.5 60.5,52.5 60.5,51.5 Z"/></g>
<g><path style="opacity:1" fill="#1e1e1e" d="M 36.5,51.5 C 38.4147,51.2155 40.0813,51.5489 41.5,52.5C 40.2264,53.1894 40.2264,54.0228 41.5,55C 42.8333,55.3333 44.1667,55.6667 45.5,56C 39.3293,57.1033 36.3293,56.9366 36.5,55.5C 36.5,54.5 36.5,53.5 36.5,52.5C 36.5,52.1667 36.5,51.8333 36.5,51.5 Z"/></g>
</svg>
